<svg id="Ebene_1" data-name="Ebene 1" xmlns="http://www.w3.org/2000/svg" viewBox="0 0 172.67 58.56"><defs><style>.cls-1{fill:#5f625f;}.cls-2{fill:#98c21f;}</style></defs><title>sav_logo_pantone_pfad</title><path class="cls-1" d="M390.49,239.17a5.48,5.48,0,0,1-4.28-1.6l1.22-1.21a4,4,0,0,0,3.09,1.16c1.58,0,2.5-.68,2.5-1.85a1.63,1.63,0,0,0-.48-1.26,2.1,2.1,0,0,0-1.33-.51l-1.43-.2a4.15,4.15,0,0,1-2.29-1,3,3,0,0,1-.88-2.31c0-2.11,1.53-3.55,4-3.55a5,5,0,0,1,3.76,1.38l-1.17,1.16a3.56,3.56,0,0,0-2.63-.94,1.93,1.93,0,0,0-2.21,1.89,1.44,1.44,0,0,0,.46,1.12,2.7,2.7,0,0,0,1.36.56l1.38,0.2a4,4,0,0,1,2.26.9,3.17,3.17,0,0,1,1,2.48C394.84,237.85,393,239.17,390.49,239.17Z" transform="translate(-334.76 -218.07)"/><path class="cls-1" d="M404.17,239.07l-0.83-2.43h-4.78l-0.83,2.43h-2l4.44-12.1h1.48l4.44,12.1h-2ZM401,229.71l-1.89,5.37h3.72Z" transform="translate(-334.76 -218.07)"/><path class="cls-1" d="M411,239.07h-1.43l-4-12.1h1.9l2.79,8.8,2.79-8.8H415Z" transform="translate(-334.76 -218.07)"/><path class="cls-1" d="M399.58,257.07l-0.83-2.43H394l-0.83,2.43h-2l4.44-12.1h1.48l4.44,12.1h-2Zm-3.18-9.37-1.89,5.37h3.72Z" transform="translate(-334.76 -218.07)"/><path class="cls-1" d="M406.72,257.17a5.48,5.48,0,0,1-4.28-1.6l1.22-1.21a4,4,0,0,0,3.09,1.16c1.58,0,2.5-.68,2.5-1.85a1.63,1.63,0,0,0-.48-1.26,2.1,2.1,0,0,0-1.33-.51l-1.43-.2a4.15,4.15,0,0,1-2.29-1,3,3,0,0,1-.88-2.31c0-2.11,1.53-3.55,4-3.55a5,5,0,0,1,3.76,1.38l-1.17,1.16a3.56,3.56,0,0,0-2.63-.94,1.93,1.93,0,0,0-2.21,1.89,1.44,1.44,0,0,0,.46,1.12,2.7,2.7,0,0,0,1.36.56l1.38,0.2a4,4,0,0,1,2.26.9,3.17,3.17,0,0,1,1,2.48C411.07,255.85,409.25,257.17,406.72,257.17Z" transform="translate(-334.76 -218.07)"/><path class="cls-1" d="M420.06,257.07l-0.83-2.43h-4.78l-0.83,2.43h-2L416.1,245h1.48l4.44,12.1h-2Zm-3.18-9.37L415,253.08h3.72Z" transform="translate(-334.76 -218.07)"/><path class="cls-1" d="M405.28,275.07l-0.83-2.43h-4.78l-0.83,2.43h-2l4.44-12.1h1.48l4.44,12.1h-2Zm-3.18-9.37-1.89,5.37h3.72Z" transform="translate(-334.76 -218.07)"/><path class="cls-1" d="M412.42,275.17a5.48,5.48,0,0,1-4.28-1.6l1.22-1.21a4,4,0,0,0,3.09,1.16c1.58,0,2.5-.68,2.5-1.85a1.63,1.63,0,0,0-.48-1.26,2.1,2.1,0,0,0-1.33-.51l-1.43-.2a4.15,4.15,0,0,1-2.29-1,3,3,0,0,1-.88-2.31c0-2.11,1.53-3.55,4-3.55a5,5,0,0,1,3.76,1.38l-1.17,1.16a3.56,3.56,0,0,0-2.63-.94,1.93,1.93,0,0,0-2.21,1.89,1.44,1.44,0,0,0,.46,1.12,2.7,2.7,0,0,0,1.36.56l1.38,0.2a4,4,0,0,1,2.26.9,3.17,3.17,0,0,1,1,2.48C416.77,273.85,414.95,275.17,412.42,275.17Z" transform="translate(-334.76 -218.07)"/><path class="cls-1" d="M425.76,275.07l-0.83-2.43h-4.78l-0.83,2.43h-2L421.8,263h1.48l4.44,12.1h-2Zm-3.18-9.37-1.89,5.37h3.72Z" transform="translate(-334.76 -218.07)"/><path class="cls-1" d="M431.1,231.08a2.17,2.17,0,0,1-1.71-.66l0.36-.36a1.71,1.71,0,0,0,1.36.55,1,1,0,0,0,1.18-.92,0.8,0.8,0,0,0-.24-0.62,1.07,1.07,0,0,0-.65-0.24l-0.58-.09a1.81,1.81,0,0,1-.92-0.38,1.18,1.18,0,0,1-.38-0.93,1.41,1.41,0,0,1,1.6-1.41,2,2,0,0,1,1.48.55l-0.34.34a1.57,1.57,0,0,0-1.16-.43,0.92,0.92,0,0,0-1.05.92,0.72,0.72,0,0,0,.22.57,1.44,1.44,0,0,0,.67.27l0.55,0.08a1.6,1.6,0,0,1,.91.35,1.25,1.25,0,0,1,.42,1A1.49,1.49,0,0,1,431.1,231.08Z" transform="translate(-334.76 -218.07)"/><path class="cls-1" d="M435.15,231.08a1.78,1.78,0,0,1,0-3.53,1.37,1.37,0,0,1,1.13.51l-0.34.32a1,1,0,0,0-.79-0.38,0.93,0.93,0,0,0-.8.39,2,2,0,0,0,0,1.85,0.93,0.93,0,0,0,.8.39,1,1,0,0,0,.79-0.39l0.34,0.33A1.37,1.37,0,0,1,435.15,231.08Z" transform="translate(-334.76 -218.07)"/><path class="cls-1" d="M439.41,231v-2.13a0.79,0.79,0,0,0-.84-0.91,0.81,0.81,0,0,0-.86.91V231h-0.5v-5h0.5V228a1.23,1.23,0,0,1,1-.42,1.16,1.16,0,0,1,1.24,1.27V231h-0.5Z" transform="translate(-334.76 -218.07)"/><path class="cls-1" d="M444.38,231h-0.47l-0.9-2.67-0.9,2.67h-0.47l-1.09-3.45h0.55l0.79,2.77,0.9-2.77h0.43l0.91,2.77,0.78-2.77h0.55Z" transform="translate(-334.76 -218.07)"/><path class="cls-1" d="M446.45,229.45a1,1,0,0,0,1,1.19,1.13,1.13,0,0,0,.9-0.39l0.34,0.3a1.58,1.58,0,0,1-1.26.53c-0.91,0-1.51-.55-1.51-1.76s0.54-1.76,1.42-1.76a1.44,1.44,0,0,1,1.41,1.67v0.23h-2.33Zm1.72-1a0.88,0.88,0,0,0-1.61,0,1.46,1.46,0,0,0-.11.57h1.82A1.44,1.44,0,0,0,448.17,228.5Z" transform="translate(-334.76 -218.07)"/><path class="cls-1" d="M449.78,226.62V226h0.57v0.57h-0.57Zm0,4.43V227.6h0.5V231h-0.5Z" transform="translate(-334.76 -218.07)"/><path class="cls-1" d="M451.27,231v-0.43l1.92-2.56h-1.81V227.6h2.4V228l-1.93,2.57h1.93V231h-2.5Z" transform="translate(-334.76 -218.07)"/><path class="cls-1" d="M455,229.45a1,1,0,0,0,1,1.19,1.13,1.13,0,0,0,.9-0.39l0.34,0.3a1.58,1.58,0,0,1-1.26.53c-0.91,0-1.51-.55-1.51-1.76s0.54-1.76,1.42-1.76a1.44,1.44,0,0,1,1.41,1.67v0.23H455Zm1.72-1a0.88,0.88,0,0,0-1.61,0,1.46,1.46,0,0,0-.11.57h1.82A1.44,1.44,0,0,0,456.75,228.5Z" transform="translate(-334.76 -218.07)"/><path class="cls-1" d="M460.32,228.25a0.72,0.72,0,0,0-.6-0.25,0.84,0.84,0,0,0-.83.92V231h-0.5V227.6h0.5V228a1.16,1.16,0,0,1,1-.46,1.06,1.06,0,0,1,.83.32Z" transform="translate(-334.76 -218.07)"/><path class="cls-1" d="M461.28,226.62V226h0.57v0.57h-0.57Zm0,4.43V227.6h0.5V231h-0.5Z" transform="translate(-334.76 -218.07)"/><path class="cls-1" d="M464.13,231.08a1.9,1.9,0,0,1-1.42-.5l0.34-.34a1.41,1.41,0,0,0,1.07.4c0.57,0,.92-0.2.92-0.61a0.5,0.5,0,0,0-.57-0.5l-0.57,0a0.92,0.92,0,0,1-1-.92,1.09,1.09,0,0,1,1.27-1,2,2,0,0,1,1.24.37l-0.33.33a1.47,1.47,0,0,0-.92-0.27,0.63,0.63,0,0,0-.77.57,0.51,0.51,0,0,0,.6.5l0.55,0a0.91,0.91,0,0,1,1,.93A1.17,1.17,0,0,1,464.13,231.08Z" transform="translate(-334.76 -218.07)"/><path class="cls-1" d="M467.82,231.08a1.78,1.78,0,0,1,0-3.53,1.37,1.37,0,0,1,1.13.51l-0.34.32a1,1,0,0,0-.79-0.38,0.93,0.93,0,0,0-.8.39,2,2,0,0,0,0,1.85,0.93,0.93,0,0,0,.8.39,1,1,0,0,0,.79-0.39l0.34,0.33A1.37,1.37,0,0,1,467.82,231.08Z" transform="translate(-334.76 -218.07)"/><path class="cls-1" d="M472.08,231v-2.13a0.79,0.79,0,0,0-.84-0.91,0.81,0.81,0,0,0-.86.91V231h-0.5v-5h0.5V228a1.23,1.23,0,0,1,1-.42,1.16,1.16,0,0,1,1.24,1.27V231h-0.5Z" transform="translate(-334.76 -218.07)"/><path class="cls-1" d="M474.09,229.45a1,1,0,0,0,1,1.19,1.13,1.13,0,0,0,.9-0.39l0.34,0.3a1.58,1.58,0,0,1-1.26.53c-0.91,0-1.51-.55-1.51-1.76s0.54-1.76,1.42-1.76a1.44,1.44,0,0,1,1.41,1.67v0.23h-2.33Zm1.72-1a0.88,0.88,0,0,0-1.61,0,1.46,1.46,0,0,0-.11.57h1.82A1.44,1.44,0,0,0,475.81,228.5Z" transform="translate(-334.76 -218.07)"/><path class="cls-1" d="M434.85,239l-0.4-1.13h-2.18l-0.4,1.13h-0.57l1.83-5h0.45l1.83,5h-0.57Zm-1.48-4.22-0.94,2.63h1.86Z" transform="translate(-334.76 -218.07)"/><path class="cls-1" d="M438.37,239l-1.09-1.76-0.67.77v1h-0.5v-5h0.5v3.33l1.55-1.79h0.63l-1.17,1.32L439,239h-0.62Z" transform="translate(-334.76 -218.07)"/><path class="cls-1" d="M440.78,239a0.84,0.84,0,0,1-.88-0.92V236h-0.43v-0.39h0.43v-1.08h0.5v1.08h0.74V236H440.4v2.1a0.44,0.44,0,0,0,.47.5h0.27V239h-0.36Z" transform="translate(-334.76 -218.07)"/><path class="cls-1" d="M444.28,239v-0.38a1.26,1.26,0,0,1-1,.43,1.22,1.22,0,0,1-.89-0.32,1.28,1.28,0,0,1-.35-1v-2.2h0.5v2.12a0.8,0.8,0,0,0,.84.92,0.82,0.82,0,0,0,.86-0.92V235.6h0.5V239h-0.5Z" transform="translate(-334.76 -218.07)"/><path class="cls-1" d="M448,239v-0.33a1.21,1.21,0,0,1-1,.37,1.23,1.23,0,0,1-1-.31,1,1,0,0,1-.26-0.7,1,1,0,0,1,1.19-1h1v-0.33a0.71,0.71,0,0,0-.88-0.76,0.91,0.91,0,0,0-.87.39l-0.34-.32a1.33,1.33,0,0,1,1.22-.51,1.13,1.13,0,0,1,1.38,1.15V239H448Zm0-1.59h-1a0.62,0.62,0,0,0-.77.61c0,0.4.25,0.59,0.79,0.59a1,1,0,0,0,.77-0.23,0.8,0.8,0,0,0,.17-0.6v-0.37Z" transform="translate(-334.76 -218.07)"/><path class="cls-1" d="M451.58,236.25A0.72,0.72,0,0,0,451,236a0.84,0.84,0,0,0-.83.92V239h-0.5V235.6h0.5V236a1.16,1.16,0,0,1,1-.46,1.06,1.06,0,0,1,.83.32Z" transform="translate(-334.76 -218.07)"/><path class="cls-1" d="M454,239h-0.45l-1.26-3.45h0.55l0.94,2.77,0.95-2.77h0.55Z" transform="translate(-334.76 -218.07)"/><path class="cls-1" d="M456.25,237.45a1,1,0,0,0,1,1.19,1.13,1.13,0,0,0,.9-0.39l0.34,0.3a1.58,1.58,0,0,1-1.26.53c-0.91,0-1.51-.55-1.51-1.76s0.54-1.76,1.42-1.76a1.44,1.44,0,0,1,1.41,1.67v0.23h-2.33Zm1.72-1a0.88,0.88,0,0,0-1.61,0,1.46,1.46,0,0,0-.11.57h1.82A1.44,1.44,0,0,0,458,236.5Z" transform="translate(-334.76 -218.07)"/><path class="cls-1" d="M461.54,236.25a0.72,0.72,0,0,0-.6-0.25,0.84,0.84,0,0,0-.83.92V239h-0.5V235.6h0.5V236a1.16,1.16,0,0,1,1-.46,1.06,1.06,0,0,1,.83.32Z" transform="translate(-334.76 -218.07)"/><path class="cls-1" d="M462.84,237.45a1,1,0,0,0,1,1.19,1.13,1.13,0,0,0,.9-0.39l0.34,0.3a1.58,1.58,0,0,1-1.26.53c-0.91,0-1.51-.55-1.51-1.76s0.54-1.76,1.42-1.76a1.44,1.44,0,0,1,1.41,1.67v0.23h-2.33Zm1.72-1a0.88,0.88,0,0,0-1.61,0,1.46,1.46,0,0,0-.11.57h1.82A1.44,1.44,0,0,0,464.55,236.5Z" transform="translate(-334.76 -218.07)"/><path class="cls-1" d="M466.17,234.62V234h0.57v0.57h-0.57Zm0,4.43V235.6h0.5V239h-0.5Z" transform="translate(-334.76 -218.07)"/><path class="cls-1" d="M470.14,239v-2.12a0.85,0.85,0,1,0-1.7,0V239h-0.5V235.6h0.5V236a1.24,1.24,0,0,1,1-.42,1.2,1.2,0,0,1,.88.32,1.27,1.27,0,0,1,.36,1V239h-0.5Z" transform="translate(-334.76 -218.07)"/><path class="cls-1" d="M471.8,234.62V234h0.57v0.57H471.8Zm0,4.43V235.6h0.5V239h-0.5Z" transform="translate(-334.76 -218.07)"/><path class="cls-1" d="M474.67,240.62a1.52,1.52,0,0,1-1.17-.46l0.33-.32a1.06,1.06,0,0,0,.83.34,0.92,0.92,0,0,0,.95-1.06v-0.54a1.11,1.11,0,0,1-1,.45,1.19,1.19,0,0,1-.83-0.31,2.67,2.67,0,0,1,0-2.87,1.2,1.2,0,0,1,.84-0.3,1.09,1.09,0,0,1,1,.45V235.6h0.5v3.55A1.37,1.37,0,0,1,474.67,240.62Zm0.08-4.62c-0.75,0-.86.64-0.86,1.29s0.11,1.29.86,1.29,0.85-.64.85-1.29S475.5,236,474.75,236Z" transform="translate(-334.76 -218.07)"/><path class="cls-1" d="M479.51,239v-0.38a1.26,1.26,0,0,1-1,.43,1.22,1.22,0,0,1-.89-0.32,1.28,1.28,0,0,1-.35-1v-2.2h0.5v2.12a0.8,0.8,0,0,0,.84.92,0.82,0.82,0,0,0,.86-0.92V235.6H480V239h-0.5Z" transform="translate(-334.76 -218.07)"/><path class="cls-1" d="M483.44,239v-2.12a0.85,0.85,0,1,0-1.7,0V239h-0.5V235.6h0.5V236a1.24,1.24,0,0,1,1-.42,1.2,1.2,0,0,1,.88.32,1.27,1.27,0,0,1,.36,1V239h-0.5Z" transform="translate(-334.76 -218.07)"/><path class="cls-1" d="M486.24,240.62a1.52,1.52,0,0,1-1.17-.46l0.33-.32a1.06,1.06,0,0,0,.83.34,0.92,0.92,0,0,0,.95-1.06v-0.54a1.11,1.11,0,0,1-1,.45,1.19,1.19,0,0,1-.83-0.31,2.67,2.67,0,0,1,0-2.87,1.2,1.2,0,0,1,.84-0.3,1.09,1.09,0,0,1,1,.45V235.6h0.5v3.55A1.37,1.37,0,0,1,486.24,240.62Zm0.08-4.62c-0.75,0-.86.64-0.86,1.29s0.11,1.29.86,1.29,0.85-.64.85-1.29S487.06,236,486.31,236Z" transform="translate(-334.76 -218.07)"/><path class="cls-1" d="M439.56,249l-0.4-1.13H437l-0.4,1.13H436l1.83-5h0.45l1.83,5h-0.57Zm-1.48-4.22-0.94,2.63H439Z" transform="translate(-334.76 -218.07)"/><path class="cls-1" d="M441.89,249.08a1.9,1.9,0,0,1-1.42-.5l0.34-.34a1.41,1.41,0,0,0,1.07.4c0.57,0,.92-0.2.92-0.61a0.5,0.5,0,0,0-.57-0.5l-0.57,0a0.92,0.92,0,0,1-1-.92,1.09,1.09,0,0,1,1.27-1,2,2,0,0,1,1.24.37l-0.33.33a1.47,1.47,0,0,0-.92-0.27,0.63,0.63,0,0,0-.77.57,0.51,0.51,0,0,0,.6.5l0.55,0a0.91,0.91,0,0,1,1,.93A1.17,1.17,0,0,1,441.89,249.08Z" transform="translate(-334.76 -218.07)"/><path class="cls-1" d="M445.32,249.08a1.9,1.9,0,0,1-1.42-.5l0.34-.34a1.41,1.41,0,0,0,1.07.4c0.57,0,.92-0.2.92-0.61a0.5,0.5,0,0,0-.57-0.5l-0.57,0a0.92,0.92,0,0,1-1-.92,1.09,1.09,0,0,1,1.27-1,2,2,0,0,1,1.24.37l-0.33.33a1.47,1.47,0,0,0-.92-0.27,0.63,0.63,0,0,0-.77.57,0.51,0.51,0,0,0,.6.5l0.55,0a0.91,0.91,0,0,1,1,.93A1.17,1.17,0,0,1,445.32,249.08Z" transform="translate(-334.76 -218.07)"/><path class="cls-1" d="M449.89,248.69a1.44,1.44,0,0,1-2,0,2.45,2.45,0,0,1,0-2.75,1.44,1.44,0,0,1,2,0A2.45,2.45,0,0,1,449.89,248.69Zm-0.36-2.44a0.88,0.88,0,0,0-.63-0.25,0.87,0.87,0,0,0-.62.25,2.16,2.16,0,0,0,0,2.13,0.87,0.87,0,0,0,.62.25,0.88,0.88,0,0,0,.63-0.25A2.21,2.21,0,0,0,449.53,246.25Z" transform="translate(-334.76 -218.07)"/><path class="cls-1" d="M452.69,249.08a1.78,1.78,0,0,1,0-3.53,1.37,1.37,0,0,1,1.13.51l-0.34.32a1,1,0,0,0-.79-0.38,0.93,0.93,0,0,0-.8.39,2,2,0,0,0,0,1.85,0.93,0.93,0,0,0,.8.39,1,1,0,0,0,.79-0.39l0.34,0.33A1.37,1.37,0,0,1,452.69,249.08Z" transform="translate(-334.76 -218.07)"/><path class="cls-1" d="M454.72,244.62V244h0.57v0.57h-0.57Zm0,4.43V245.6h0.5V249h-0.5Z" transform="translate(-334.76 -218.07)"/><path class="cls-1" d="M458.43,249v-0.33a1.21,1.21,0,0,1-1,.37,1.23,1.23,0,0,1-1-.31,1,1,0,0,1-.26-0.7,1,1,0,0,1,1.19-1h1v-0.33a0.71,0.71,0,0,0-.88-0.76,0.91,0.91,0,0,0-.87.39l-0.34-.32a1.33,1.33,0,0,1,1.22-.51,1.13,1.13,0,0,1,1.38,1.15V249h-0.5Zm0-1.59h-1a0.62,0.62,0,0,0-.77.61c0,0.4.25,0.59,0.79,0.59a1,1,0,0,0,.77-0.23,0.8,0.8,0,0,0,.17-0.6v-0.37Z" transform="translate(-334.76 -218.07)"/><path class="cls-1" d="M461.09,249a0.84,0.84,0,0,1-.88-0.92V246h-0.43v-0.39h0.43v-1.08h0.5v1.08h0.74V246h-0.74v2.1a0.44,0.44,0,0,0,.47.5h0.27V249h-0.36Z" transform="translate(-334.76 -218.07)"/><path class="cls-1" d="M462.39,244.62V244H463v0.57h-0.57Zm0,4.43V245.6h0.5V249h-0.5Z" transform="translate(-334.76 -218.07)"/><path class="cls-1" d="M466.37,248.69a1.44,1.44,0,0,1-2,0,2.45,2.45,0,0,1,0-2.75,1.44,1.44,0,0,1,2,0A2.45,2.45,0,0,1,466.37,248.69ZM466,246.25a0.88,0.88,0,0,0-.63-0.25,0.87,0.87,0,0,0-.62.25,2.16,2.16,0,0,0,0,2.13,0.87,0.87,0,0,0,.62.25,0.88,0.88,0,0,0,.63-0.25A2.21,2.21,0,0,0,466,246.25Z" transform="translate(-334.76 -218.07)"/><path class="cls-1" d="M470,249v-2.12a0.85,0.85,0,1,0-1.7,0V249h-0.5V245.6h0.5V246a1.24,1.24,0,0,1,1-.42,1.2,1.2,0,0,1,.88.32,1.27,1.27,0,0,1,.36,1V249H470Z" transform="translate(-334.76 -218.07)"/><path class="cls-1" d="M474.81,249.08a2.17,2.17,0,0,1-1.71-.66l0.36-.36a1.71,1.71,0,0,0,1.36.55,1,1,0,0,0,1.18-.92,0.8,0.8,0,0,0-.24-0.62,1.07,1.07,0,0,0-.65-0.24l-0.58-.09a1.81,1.81,0,0,1-.92-0.38,1.18,1.18,0,0,1-.38-0.93,1.41,1.41,0,0,1,1.6-1.41,2,2,0,0,1,1.48.55l-0.34.34a1.57,1.57,0,0,0-1.16-.43,0.92,0.92,0,0,0-1.05.92,0.72,0.72,0,0,0,.22.57,1.44,1.44,0,0,0,.67.27l0.55,0.08a1.6,1.6,0,0,1,.91.35,1.25,1.25,0,0,1,.42,1A1.49,1.49,0,0,1,474.81,249.08Z" transform="translate(-334.76 -218.07)"/><path class="cls-1" d="M479.69,249v-0.38a1.26,1.26,0,0,1-1,.43,1.22,1.22,0,0,1-.89-0.32,1.28,1.28,0,0,1-.35-1v-2.2H478v2.12a0.8,0.8,0,0,0,.84.92,0.82,0.82,0,0,0,.86-0.92V245.6h0.5V249h-0.5Z" transform="translate(-334.76 -218.07)"/><path class="cls-1" d="M481.39,244.62V244H482v0.57h-0.57Zm0,4.43V245.6h0.5V249h-0.5Z" transform="translate(-334.76 -218.07)"/><path class="cls-1" d="M484.23,249.08a1.9,1.9,0,0,1-1.42-.5l0.34-.34a1.41,1.41,0,0,0,1.07.4c0.57,0,.92-0.2.92-0.61a0.5,0.5,0,0,0-.57-0.5l-0.57,0a0.92,0.92,0,0,1-1-.92,1.09,1.09,0,0,1,1.27-1,2,2,0,0,1,1.24.37l-0.33.33a1.47,1.47,0,0,0-.92-0.27,0.63,0.63,0,0,0-.77.57,0.51,0.51,0,0,0,.6.5l0.55,0a0.91,0.91,0,0,1,1,.93A1.17,1.17,0,0,1,484.23,249.08Z" transform="translate(-334.76 -218.07)"/><path class="cls-1" d="M487.67,249.08a1.9,1.9,0,0,1-1.42-.5l0.34-.34a1.41,1.41,0,0,0,1.07.4c0.57,0,.92-0.2.92-0.61a0.5,0.5,0,0,0-.57-0.5l-0.57,0a0.92,0.92,0,0,1-1-.92,1.09,1.09,0,0,1,1.27-1,2,2,0,0,1,1.24.37l-0.33.33a1.47,1.47,0,0,0-.92-0.27,0.63,0.63,0,0,0-.77.57,0.51,0.51,0,0,0,.6.5l0.55,0a0.91,0.91,0,0,1,1,.93A1.17,1.17,0,0,1,487.67,249.08Z" transform="translate(-334.76 -218.07)"/><path class="cls-1" d="M490.34,247.45a1,1,0,0,0,1,1.19,1.13,1.13,0,0,0,.9-0.39l0.34,0.3a1.58,1.58,0,0,1-1.26.53c-0.91,0-1.51-.55-1.51-1.76s0.54-1.76,1.42-1.76a1.44,1.44,0,0,1,1.41,1.67v0.23h-2.33Zm1.72-1a0.88,0.88,0,0,0-1.61,0,1.46,1.46,0,0,0-.11.57h1.82A1.44,1.44,0,0,0,492.05,246.5Z" transform="translate(-334.76 -218.07)"/><path class="cls-1" d="M440.33,257v-0.41a1.12,1.12,0,0,1-1,.46,1.2,1.2,0,0,1-.84-0.3,2.76,2.76,0,0,1,0-2.93,1.2,1.2,0,0,1,.84-0.3,1.11,1.11,0,0,1,1,.44v-1.94h0.5v5h-0.5Zm-0.87-3c-0.75,0-.87.64-0.87,1.32s0.12,1.32.87,1.32,0.86-.64.86-1.32S440.21,254,439.46,254Z" transform="translate(-334.76 -218.07)"/><path class="cls-1" d="M442.36,255.45a1,1,0,0,0,1,1.19,1.13,1.13,0,0,0,.9-0.39l0.34,0.3a1.58,1.58,0,0,1-1.26.53c-0.91,0-1.51-.55-1.51-1.76s0.54-1.76,1.42-1.76a1.44,1.44,0,0,1,1.41,1.67v0.23h-2.33Zm1.72-1a0.88,0.88,0,0,0-1.61,0,1.46,1.46,0,0,0-.11.57h1.82A1.44,1.44,0,0,0,444.08,254.5Z" transform="translate(-334.76 -218.07)"/><path class="cls-1" d="M446.81,257.08a1.9,1.9,0,0,1-1.42-.5l0.34-.34a1.41,1.41,0,0,0,1.07.4c0.57,0,.92-0.2.92-0.61a0.5,0.5,0,0,0-.57-0.5l-0.57,0a0.92,0.92,0,0,1-1-.92,1.09,1.09,0,0,1,1.27-1,2,2,0,0,1,1.24.37l-0.33.33a1.47,1.47,0,0,0-.92-0.27,0.63,0.63,0,0,0-.77.57,0.51,0.51,0,0,0,.6.5l0.55,0a0.91,0.91,0,0,1,1,.93A1.17,1.17,0,0,1,446.81,257.08Z" transform="translate(-334.76 -218.07)"/><path class="cls-1" d="M453.87,257l-0.4-1.13h-2.18l-0.4,1.13h-0.57l1.83-5h0.45l1.83,5h-0.57Zm-1.48-4.22-0.94,2.63h1.86Z" transform="translate(-334.76 -218.07)"/><path class="cls-1" d="M456.45,257.08a1.78,1.78,0,0,1,0-3.53,1.37,1.37,0,0,1,1.13.51l-0.34.32a1,1,0,0,0-.79-0.38,0.93,0.93,0,0,0-.8.39,2,2,0,0,0,0,1.85,0.93,0.93,0,0,0,.8.39,1,1,0,0,0,.79-0.39l0.34,0.33A1.37,1.37,0,0,1,456.45,257.08Z" transform="translate(-334.76 -218.07)"/><path class="cls-1" d="M459.47,257a0.84,0.84,0,0,1-.88-0.92V254h-0.43v-0.39h0.43v-1.08h0.5v1.08h0.74V254h-0.74v2.1a0.44,0.44,0,0,0,.47.5h0.27V257h-0.36Z" transform="translate(-334.76 -218.07)"/><path class="cls-1" d="M463,257v-0.38a1.26,1.26,0,0,1-1,.43,1.22,1.22,0,0,1-.89-0.32,1.28,1.28,0,0,1-.35-1v-2.2h0.5v2.12a0.8,0.8,0,0,0,.84.92,0.82,0.82,0,0,0,.86-0.92V253.6h0.5V257H463Z" transform="translate(-334.76 -218.07)"/><path class="cls-1" d="M466.65,257v-0.33a1.21,1.21,0,0,1-1,.37,1.23,1.23,0,0,1-1-.31,1,1,0,0,1-.26-0.7,1,1,0,0,1,1.19-1h1v-0.33a0.71,0.71,0,0,0-.88-0.76,0.91,0.91,0,0,0-.87.39l-0.34-.32a1.33,1.33,0,0,1,1.22-.51,1.13,1.13,0,0,1,1.38,1.15V257h-0.5Zm0-1.59h-1a0.62,0.62,0,0,0-.77.61c0,0.4.25,0.59,0.79,0.59a1,1,0,0,0,.77-0.23,0.8,0.8,0,0,0,.17-0.6v-0.37Z" transform="translate(-334.76 -218.07)"/><path class="cls-1" d="M468.31,252.62V252h0.57v0.57h-0.57Zm0,4.43V253.6h0.5V257h-0.5Z" transform="translate(-334.76 -218.07)"/><path class="cls-1" d="M472,254.25a0.72,0.72,0,0,0-.6-0.25,0.84,0.84,0,0,0-.83.92V257h-0.5V253.6h0.5V254a1.16,1.16,0,0,1,1-.46,1.06,1.06,0,0,1,.83.32Z" transform="translate(-334.76 -218.07)"/><path class="cls-1" d="M473.3,255.45a1,1,0,0,0,1,1.19,1.13,1.13,0,0,0,.9-0.39l0.34,0.3a1.58,1.58,0,0,1-1.26.53c-0.91,0-1.51-.55-1.51-1.76s0.54-1.76,1.42-1.76a1.44,1.44,0,0,1,1.41,1.67v0.23H473.3Zm1.72-1a0.88,0.88,0,0,0-1.61,0,1.46,1.46,0,0,0-.11.57h1.82A1.44,1.44,0,0,0,475,254.5Z" transform="translate(-334.76 -218.07)"/><path class="cls-1" d="M477.75,257.08a1.9,1.9,0,0,1-1.42-.5l0.34-.34a1.41,1.41,0,0,0,1.07.4c0.57,0,.92-0.2.92-0.61a0.5,0.5,0,0,0-.57-0.5l-0.57,0a0.92,0.92,0,0,1-1-.92,1.09,1.09,0,0,1,1.27-1,2,2,0,0,1,1.24.37l-0.33.33a1.47,1.47,0,0,0-.92-0.27,0.63,0.63,0,0,0-.77.57,0.51,0.51,0,0,0,.6.5l0.55,0a0.91,0.91,0,0,1,1,.93A1.17,1.17,0,0,1,477.75,257.08Z" transform="translate(-334.76 -218.07)"/><path class="cls-1" d="M444.68,267l-0.4-1.13H442.1l-0.4,1.13h-0.57l1.83-5h0.45l1.83,5h-0.57Zm-1.48-4.22-0.94,2.63h1.86Z" transform="translate(-334.76 -218.07)"/><path class="cls-1" d="M447,267.08a1.9,1.9,0,0,1-1.42-.5l0.34-.34a1.41,1.41,0,0,0,1.07.4c0.57,0,.92-0.2.92-0.61a0.5,0.5,0,0,0-.57-0.5l-0.57,0a0.92,0.92,0,0,1-1-.92,1.09,1.09,0,0,1,1.27-1,2,2,0,0,1,1.24.37l-0.33.33A1.47,1.47,0,0,0,447,264a0.63,0.63,0,0,0-.77.57,0.51,0.51,0,0,0,.6.5l0.55,0a0.91,0.91,0,0,1,1,.93A1.17,1.17,0,0,1,447,267.08Z" transform="translate(-334.76 -218.07)"/><path class="cls-1" d="M450.45,267.08a1.9,1.9,0,0,1-1.42-.5l0.34-.34a1.41,1.41,0,0,0,1.07.4c0.57,0,.92-0.2.92-0.61a0.5,0.5,0,0,0-.57-0.5l-0.57,0a0.92,0.92,0,0,1-1-.92,1.09,1.09,0,0,1,1.27-1,2,2,0,0,1,1.24.37l-0.33.33a1.47,1.47,0,0,0-.92-0.27,0.63,0.63,0,0,0-.77.57,0.51,0.51,0,0,0,.6.5l0.55,0a0.91,0.91,0,0,1,1,.93A1.17,1.17,0,0,1,450.45,267.08Z" transform="translate(-334.76 -218.07)"/><path class="cls-1" d="M455,266.69a1.44,1.44,0,0,1-2,0,2.45,2.45,0,0,1,0-2.75,1.44,1.44,0,0,1,2,0A2.45,2.45,0,0,1,455,266.69Zm-0.36-2.44A0.88,0.88,0,0,0,454,264a0.87,0.87,0,0,0-.62.25,2.16,2.16,0,0,0,0,2.13,0.87,0.87,0,0,0,.62.25,0.88,0.88,0,0,0,.63-0.25A2.21,2.21,0,0,0,454.66,264.25Z" transform="translate(-334.76 -218.07)"/><path class="cls-1" d="M457.81,267.08a1.78,1.78,0,0,1,0-3.53,1.37,1.37,0,0,1,1.13.51l-0.34.32a1,1,0,0,0-.79-0.38,0.93,0.93,0,0,0-.8.39,2,2,0,0,0,0,1.85,0.93,0.93,0,0,0,.8.39,1,1,0,0,0,.79-0.39l0.34,0.33A1.37,1.37,0,0,1,457.81,267.08Z" transform="translate(-334.76 -218.07)"/><path class="cls-1" d="M459.84,262.62V262h0.57v0.57h-0.57Zm0,4.43V263.6h0.5V267h-0.5Z" transform="translate(-334.76 -218.07)"/><path class="cls-1" d="M463.56,267v-0.33a1.21,1.21,0,0,1-1,.37,1.23,1.23,0,0,1-1-.31,1,1,0,0,1-.26-0.7,1,1,0,0,1,1.19-1h1v-0.33a0.71,0.71,0,0,0-.88-0.76,0.91,0.91,0,0,0-.87.39l-0.34-.32a1.33,1.33,0,0,1,1.22-.51,1.13,1.13,0,0,1,1.38,1.15V267h-0.5Zm0-1.59h-1a0.62,0.62,0,0,0-.77.61c0,0.4.25,0.59,0.79,0.59a1,1,0,0,0,.77-0.23,0.8,0.8,0,0,0,.17-0.6v-0.37Z" transform="translate(-334.76 -218.07)"/><path class="cls-1" d="M465,267v-0.43l1.92-2.56h-1.81V263.6h2.4V264l-1.93,2.57h1.93V267H465Z" transform="translate(-334.76 -218.07)"/><path class="cls-1" d="M468.4,262.62V262H469v0.57H468.4Zm0,4.43V263.6h0.5V267h-0.5Z" transform="translate(-334.76 -218.07)"/><path class="cls-1" d="M472.38,266.69a1.44,1.44,0,0,1-2,0,2.45,2.45,0,0,1,0-2.75,1.44,1.44,0,0,1,2,0A2.45,2.45,0,0,1,472.38,266.69ZM472,264.25a0.88,0.88,0,0,0-.63-0.25,0.87,0.87,0,0,0-.62.25,2.16,2.16,0,0,0,0,2.13,0.87,0.87,0,0,0,.62.25,0.88,0.88,0,0,0,.63-0.25A2.21,2.21,0,0,0,472,264.25Z" transform="translate(-334.76 -218.07)"/><path class="cls-1" d="M476,267v-2.12a0.85,0.85,0,1,0-1.7,0V267h-0.5V263.6h0.5V264a1.24,1.24,0,0,1,1-.42,1.2,1.2,0,0,1,.88.32,1.27,1.27,0,0,1,.36,1V267H476Z" transform="translate(-334.76 -218.07)"/><path class="cls-1" d="M478.05,265.45a1,1,0,0,0,1,1.19,1.13,1.13,0,0,0,.9-0.39l0.34,0.3a1.58,1.58,0,0,1-1.26.53c-0.91,0-1.51-.55-1.51-1.76s0.54-1.76,1.42-1.76a1.44,1.44,0,0,1,1.41,1.67v0.23h-2.33Zm1.72-1a0.88,0.88,0,0,0-1.61,0,1.46,1.46,0,0,0-.11.57h1.82A1.44,1.44,0,0,0,479.77,264.5Z" transform="translate(-334.76 -218.07)"/><path class="cls-1" d="M484.49,267.08a2.17,2.17,0,0,1-1.71-.66l0.36-.36a1.71,1.71,0,0,0,1.36.55,1,1,0,0,0,1.18-.92,0.8,0.8,0,0,0-.24-0.62,1.07,1.07,0,0,0-.65-0.24l-0.58-.09a1.81,1.81,0,0,1-.92-0.38,1.18,1.18,0,0,1-.38-0.93,1.41,1.41,0,0,1,1.6-1.41,2,2,0,0,1,1.48.55l-0.34.34a1.57,1.57,0,0,0-1.16-.43,0.92,0.92,0,0,0-1.05.92,0.72,0.72,0,0,0,.22.57,1.44,1.44,0,0,0,.67.27l0.55,0.08a1.6,1.6,0,0,1,.91.35,1.25,1.25,0,0,1,.42,1A1.49,1.49,0,0,1,484.49,267.08Z" transform="translate(-334.76 -218.07)"/><path class="cls-1" d="M488.36,267h-0.45l-1.26-3.45h0.55l0.94,2.77,0.95-2.77h0.55Z" transform="translate(-334.76 -218.07)"/><path class="cls-1" d="M490.27,262.62V262h0.57v0.57h-0.57Zm0,4.43V263.6h0.5V267h-0.5Z" transform="translate(-334.76 -218.07)"/><path class="cls-1" d="M491.75,267v-0.43l1.92-2.56h-1.81V263.6h2.4V264l-1.93,2.57h1.93V267h-2.5Z" transform="translate(-334.76 -218.07)"/><path class="cls-1" d="M494.93,267v-0.43l1.92-2.56H495V263.6h2.4V264l-1.93,2.57h1.93V267h-2.5Z" transform="translate(-334.76 -218.07)"/><path class="cls-1" d="M498.7,265.45a1,1,0,0,0,1,1.19,1.13,1.13,0,0,0,.9-0.39l0.34,0.3a1.58,1.58,0,0,1-1.26.53c-0.91,0-1.51-.55-1.51-1.76s0.54-1.76,1.42-1.76a1.44,1.44,0,0,1,1.41,1.67v0.23H498.7Zm1.72-1a0.88,0.88,0,0,0-1.61,0,1.46,1.46,0,0,0-.11.57h1.82A1.44,1.44,0,0,0,500.42,264.5Z" transform="translate(-334.76 -218.07)"/><path class="cls-1" d="M504,264.25a0.72,0.72,0,0,0-.6-0.25,0.84,0.84,0,0,0-.83.92V267h-0.5V263.6h0.5V264a1.16,1.16,0,0,1,1-.46,1.06,1.06,0,0,1,.83.32Z" transform="translate(-334.76 -218.07)"/><path class="cls-1" d="M506.93,267v-0.33a1.21,1.21,0,0,1-1,.37,1.23,1.23,0,0,1-1-.31,1,1,0,0,1-.26-0.7,1,1,0,0,1,1.19-1h1v-0.33A0.71,0.71,0,0,0,506,264a0.91,0.91,0,0,0-.87.39l-0.34-.32a1.33,1.33,0,0,1,1.22-.51,1.13,1.13,0,0,1,1.38,1.15V267h-0.5Zm0-1.59h-1a0.62,0.62,0,0,0-.77.61c0,0.4.25,0.59,0.79,0.59a1,1,0,0,0,.77-0.23,0.8,0.8,0,0,0,.17-0.6v-0.37Z" transform="translate(-334.76 -218.07)"/><path class="cls-1" d="M446.32,275v-0.41a1.12,1.12,0,0,1-1,.46,1.2,1.2,0,0,1-.84-0.3,2.76,2.76,0,0,1,0-2.93,1.2,1.2,0,0,1,.84-0.3,1.11,1.11,0,0,1,1,.44v-1.94h0.5v5h-0.5Zm-0.87-3c-0.75,0-.87.64-0.87,1.32s0.12,1.32.87,1.32,0.86-.64.86-1.32S446.2,272,445.45,272Z" transform="translate(-334.76 -218.07)"/><path class="cls-1" d="M448.36,273.45a1,1,0,0,0,1,1.19,1.13,1.13,0,0,0,.9-0.39l0.34,0.3a1.58,1.58,0,0,1-1.26.53c-0.91,0-1.51-.55-1.51-1.76s0.54-1.76,1.42-1.76a1.44,1.44,0,0,1,1.41,1.67v0.23h-2.33Zm1.72-1a0.88,0.88,0,0,0-1.61,0,1.46,1.46,0,0,0-.11.57h1.82A1.44,1.44,0,0,0,450.07,272.5Z" transform="translate(-334.76 -218.07)"/><path class="cls-1" d="M452.82,276.62a1.52,1.52,0,0,1-1.17-.46l0.33-.32a1.06,1.06,0,0,0,.83.34,0.92,0.92,0,0,0,.95-1.06v-0.54a1.11,1.11,0,0,1-1,.45,1.19,1.19,0,0,1-.83-0.31,2.67,2.67,0,0,1,0-2.87,1.2,1.2,0,0,1,.84-0.3,1.09,1.09,0,0,1,1,.45V271.6h0.5v3.55A1.37,1.37,0,0,1,452.82,276.62ZM452.9,272c-0.75,0-.86.64-0.86,1.29s0.11,1.29.86,1.29,0.85-.64.85-1.29S453.65,272,452.9,272Z" transform="translate(-334.76 -218.07)"/><path class="cls-1" d="M456.34,275a0.82,0.82,0,0,1-.88-0.92v-4.07H456v4a0.41,0.41,0,0,0,.46.5h0.27V275h-0.36Z" transform="translate(-334.76 -218.07)"/><path class="cls-1" d="M457.5,270.62V270h0.57v0.57H457.5Zm0,4.43V271.6H458V275h-0.5Z" transform="translate(-334.76 -218.07)"/><path class="cls-1" d="M464,275l-0.4-1.13h-2.18L461,275h-0.57l1.83-5h0.45l1.83,5H464Zm-1.48-4.22-0.94,2.63h1.86Z" transform="translate(-334.76 -218.07)"/><path class="cls-1" d="M466.18,275a0.84,0.84,0,0,1-.88-0.92V272h-0.43v-0.39h0.43v-1.08h0.5v1.08h0.74V272H465.8v2.1a0.44,0.44,0,0,0,.47.5h0.27V275h-0.36Z" transform="translate(-334.76 -218.07)"/><path class="cls-1" d="M468.47,275a0.84,0.84,0,0,1-.88-0.92V272h-0.43v-0.39h0.43v-1.08h0.5v1.08h0.74V272h-0.74v2.1a0.44,0.44,0,0,0,.47.5h0.27V275h-0.36Z" transform="translate(-334.76 -218.07)"/><path class="cls-1" d="M472,275v-0.38a1.26,1.26,0,0,1-1,.43,1.22,1.22,0,0,1-.89-0.32,1.28,1.28,0,0,1-.35-1v-2.2h0.5v2.12a0.8,0.8,0,0,0,.84.92,0.82,0.82,0,0,0,.86-0.92V271.6h0.5V275H472Z" transform="translate(-334.76 -218.07)"/><path class="cls-1" d="M475.64,275v-0.33a1.21,1.21,0,0,1-1,.37,1.23,1.23,0,0,1-1-.31,1,1,0,0,1-.26-0.7,1,1,0,0,1,1.19-1h1v-0.33a0.71,0.71,0,0,0-.88-0.76,0.91,0.91,0,0,0-.87.39l-0.34-.32a1.33,1.33,0,0,1,1.22-.51,1.13,1.13,0,0,1,1.38,1.15V275h-0.5Zm0-1.59h-1a0.62,0.62,0,0,0-.77.61c0,0.4.25,0.59,0.79,0.59a1,1,0,0,0,.77-0.23,0.8,0.8,0,0,0,.17-0.6v-0.37Z" transform="translate(-334.76 -218.07)"/><path class="cls-1" d="M479.26,272.25a0.72,0.72,0,0,0-.6-0.25,0.84,0.84,0,0,0-.83.92V275h-0.5V271.6h0.5V272a1.16,1.16,0,0,1,1-.46,1.06,1.06,0,0,1,.83.32Z" transform="translate(-334.76 -218.07)"/><path class="cls-1" d="M480.22,270.62V270h0.57v0.57h-0.57Zm0,4.43V271.6h0.5V275h-0.5Z" transform="translate(-334.76 -218.07)"/><path class="cls-1" d="M337,275.05h-2.21l19.08-57h1.75l-4.77,14.44Z" transform="translate(-334.76 -218.07)"/><path class="cls-1" d="M360.46,256.34l-7.76-23.83,4.62-14.44,19.71,57h-10.4L361.32,259Z" transform="translate(-334.76 -218.07)"/><path class="cls-2" d="M355.57,275.05h-1.89L370,226.32h1.49l-4.09,12.36Z" transform="translate(-334.76 -218.07)"/><path class="cls-2" d="M375.67,259L369,238.65l4-12.36,16.86,48.76h-8.9L376.4,261.3Z" transform="translate(-334.76 -218.07)"/><path class="cls-1" d="M341,275H339.8l10.61-31.69h1l-2.66,8Z" transform="translate(-334.76 -218.07)"/><path class="cls-1" d="M354.1,264.6l-4.32-13.26,2.57-8,11,31.7h-5.79l-3-8.94Z" transform="translate(-334.76 -218.07)"/><path class="cls-2" d="M427.54,238.68l-4.09-12.36h1.13l16.32,48.74h-1.53Z" transform="translate(-334.76 -218.07)"/></svg>